<svg id="Layer_1" data-name="Layer 1" xmlns="http://www.w3.org/2000/svg" viewBox="0 0 506.8 71.57"><defs><style>.cls-1{fill:#8c5968;}</style></defs><path class="cls-1" d="M235.43,43c0-8.24.06-16.48-.05-24.72,0-1.95.46-2.76,2.45-2.43a4.72,4.72,0,0,0,1.5,0c1.84-.31,2.36.36,2.35,2.27-.09,14.73,0,29.46-.11,44.19,0,2.43.59,3.25,3,2.95a23.78,23.78,0,0,1,5,0c1.75.15,2.26-.42,2.23-2.19-.1-7.91,0-15.81,0-23.72,0-7.16.05-14.32,0-21.47,0-1.65.44-2.07,2.06-2,4.26.06,4.26,0,4.26,4.34,0,14.23,0,28.46,0,42.7,0,1.78.32,2.62,2.3,2.4,2.7-.31,6.23,1.15,7.91-.57s.43-5.07.43-7.71c0-12.9.06-25.8,0-38.7,0-1.92.42-2.75,2.42-2.43a9.32,9.32,0,0,0,2.24,0c1.1-.1,1.41.36,1.41,1.44,0,15.31,0,30.63-.11,45.94-.05,5.12-2.15,7.06-7.29,7.12-10,.12-20,0-30,.12-1.59,0-1.93-.53-1.92-2C235.46,60,235.43,51.5,235.43,43Z"/><path class="cls-1" d="M57.15,43.12c0-8.41,0-16.81,0-25.22,0-1.6.37-2.08,2-2.07,9.33.09,18.66,0,28,.05,5.36,0,8.69,3.4,8.7,8.74q0,21.84,0,43.69c0,.7.42,1.73-.31,2.06a2.94,2.94,0,0,1-2.59-.56,5.94,5.94,0,0,1-2.6-4.35,33.79,33.79,0,0,1-.39-5.22c0-12.23-.06-24.47,0-36.7,0-1.89-.48-2.46-2.34-2.3a32.37,32.37,0,0,1-5.74,0c-1.8-.16-2.17.48-2.17,2.2.07,14.9,0,29.8,0,44.69,0,2.59-.71,3-3,1.73a5.88,5.88,0,0,1-2.82-4.21,22.55,22.55,0,0,1-.56-5.19c0-12.23,0-24.47.05-36.7,0-1.8-.22-2.77-2.35-2.5-2.53.31-5.94-1.06-7.39.56-1.26,1.41-.41,4.74-.41,7.22,0,13.07-.09,26.13.06,39.2,0,2.69-1.35,2.46-3.06,2.41s-3.21.54-3.14-2.3C57.28,59.94,57.15,51.53,57.15,43.12Z"/><path class="cls-1" d="M430.31,36.31c0,9,.06,18-.05,27,0,1.92.52,2.43,2.37,2.3a46,46,0,0,1,6.74,0c1.76.12,2.22-.45,2.2-2.2-.09-9.73,0-19.47-.09-29.2,0-2.09.57-2.8,2.64-2.58a23.46,23.46,0,0,0,4.74,0c1.63-.15,2.05.52,1.89,2a15.92,15.92,0,0,0,0,2.49c.05,1-.1,1.7-1.31,1.49-1.72-.29-1.83.69-1.82,2,.05,7.16,0,14.31,0,21.47,0,6.63-3.41,10.17-10,10.46-1.08,0-2.17,0-3.25,0-6.52-.29-10.11-4-10.11-10.47q0-25.08,0-50.17c0-6.76,3.83-10.66,10.62-10.87a29,29,0,0,1,3.49.06c5.74.48,9.1,4,9.25,9.75.09,3.24,0,6.49,0,9.73,0,1.38-.35,1.87-1.8,1.9-4.32.1-4.32.16-4.32-4.11,0-2.91-.11-5.83,0-8.73.09-1.81-.57-2.29-2.27-2.19a41.93,41.93,0,0,1-6.24,0c-2.13-.19-2.85.37-2.81,2.68C430.4,18.17,430.31,27.24,430.31,36.31Z"/><path class="cls-1" d="M142.88,56.55c0,1.58,0,3.16,0,4.74-.16,5.69-3.44,9.33-9.13,10a20.8,20.8,0,0,1-5.23-.05c-6-.89-9-4.4-9.13-10.53,0-.75,0-1.5,0-2.25,0-3.65-.42-3.23,3.15-3.22s3-.49,3.07,3.57c.05,2.13-.93,5,.44,6.18,1.18,1.05,4,.35,6,.36,4.72,0,4.31,0,4.83-4.76.7-6.36-1.07-11.1-6.48-14.78-3.27-2.23-5.92-5.35-9-7.93a5.16,5.16,0,0,1-2.11-4.69c.18-2.65,0-5.32.06-8,.12-4.93,2.42-8,7.14-9.27a16.56,16.56,0,0,1,11.23.55,8,8,0,0,1,5.06,7.38c.08,1.66-.1,3.34.1,5,.26,2.14-.56,2.65-2.6,2.55-3.52-.17-3.47-.05-3.55-3.58-.05-2.21,1-5.15-.46-6.43-1.24-1.09-4.11-.36-6.26-.38-4.46,0-4.06,0-4.55,4.4-.67,5.94,1.1,10.27,6.09,13.7,3.33,2.29,6,5.46,9.18,8.07a5.11,5.11,0,0,1,2.16,4.9,37.34,37.34,0,0,0,0,4.49Z"/><path class="cls-1" d="M167.26,42.6q0-16.6,0-33.21a27.78,27.78,0,0,1,.2-4c.45-3,1.8-4.52,4.83-4.82s6.15-.17,9.23-.24c.82,0,1.11.32,1.22,1.16.61,4.35.27,4.78-4.14,4.78-5.29,0-5.29,0-5.29,5.33,0,4.26,0,4.26,4.29,4.26a13,13,0,0,0,2.25,0c2.48-.45,3,.6,3,2.95s-.77,2.64-2.74,2.52c-2.14-.13-5-.74-6.27.36-1.45,1.28-.46,5.11-.46,7.33.06,13.14.06,9.1,0,27.72,0,.89.69,13.5-.51,13.91-1,.36-3-.88-3.89-1.58s-1.68-1.08-1.7-3.69c-.06-7.07,0-1.47,0-8.55Q167.27,49.72,167.26,42.6Z"/><path class="cls-1" d="M472.14,42.79c0-11.49,0-23,0-34.46,0-6.07,1.61-7.66,7.7-7.77,2,0,4,0,6,0,1.3-.06,1.87.4,1.71,1.71a8.34,8.34,0,0,0,0,1c0,3.25,0,3.21-3.16,3.26-2,0-4.52-.84-5.79.35s-.28,3.78-.42,5.75c-.05.75.05,1.5,0,2.25-.09,1,.38,1.27,1.31,1.25,2.08-.05,4.17.06,6.25,0,1.36-.06,1.91.26,1.87,1.76-.12,4.53.26,3.63-3.5,3.67-5.91.05-5.91,0-5.91,5.91,0,18.89,0,15.44,0,34.33,0,.78.05,8.72-.78,9.12a4.07,4.07,0,0,1-3.48,0c-2.46-1.75-1.83-5.59-1.84-8.29C472,50.63,472.14,54.69,472.14,42.79Z"/><path class="cls-1" d="M8.74,38.62c0-9.9-.08-19.8.06-29.7,0-2.29-.66-3-2.79-2.66a19.27,19.27,0,0,1-2.74,0C.06,6.28.19,6.27,0,3.07-.1.94.41.21,2.72.28,8.88.46,15,.42,21.2.3c1.84,0,2.64.4,2.35,2.32a10.48,10.48,0,0,0,0,2.24c.06,1.08-.42,1.47-1.48,1.43-1.58-.06-3.18.14-4.74,0-2.18-.26-2.54.64-2.53,2.64.08,17.39.05,34.77.05,52.16,0,2.58-.07,5.16,0,7.74.05,1.37-.33,1.86-1.79,1.89-4.32.08-4.31.15-4.31-4.1Q8.73,52.61,8.74,38.62Z"/><path class="cls-1" d="M315.18,40.61c0-7.57.05-15.14,0-22.71,0-1.63.41-2.1,2.05-2.06,4.16.12,8.33,0,12.49.06,5.35.11,7.51,2.35,7.57,7.71,0,2.16,0,4.33,0,6.49,0,1.1-.39,1.36-1.44,1.43-4.71.31-4.71.34-4.71-4.38,0-5.86,0-5.86-6-5.86-3.9,0-3.9,0-3.9,3.92V68.39c0,2.56-.57,2.9-2.84,1.58-2.65-1.53-3.15-4.18-3.17-6.9-.07-7.49,0-15,0-22.46Z"/><path class="cls-1" d="M493.14,36.62c0-8.65.07-17.31-.05-26,0-2,.63-2.86,2.51-2.38,1.22.31,3.24-1.3,3.59,1.24.29,2.11-.91,5,.49,6.18,1.19,1.05,4,.34,6,.36.74,0,1.05.27,1,1a14.78,14.78,0,0,0,0,2.49c.19,1.55-.41,1.95-1.94,1.95-5.57,0-5.57.08-5.57,5.73,0,12,0,24,0,35.94,0,1.82.38,2.63,2.31,2.34.9-.14,1.85.1,2.74,0,2.12-.34,2.55.51,2.58,2.55,0,2.28-.59,3.18-2.89,2.81a15.34,15.34,0,0,0-2.25,0c-5.61-.12-8.46-2.88-8.51-8.49C493.09,53.76,493.14,45.19,493.14,36.62Z"/><path class="cls-1" d="M194.36,35.6V68.54c0,2.31-.46,2.57-2.58,1.53A5.7,5.7,0,0,1,188.83,66a19.51,19.51,0,0,1-.51-4.44c0-19.63,0-39.26-.07-58.89,0-1.9.5-2.39,2.36-2.33,3.74.13,3.75,0,3.75,3.85V35.6Z"/><path class="cls-1" d="M462.61,43.35c0,8.48-.08,17,.05,25.45,0,2.27-.81,2.35-2.44,1.64-2.44-1.06-3.24-3.25-3.52-5.61a49.59,49.59,0,0,1-.19-6c0-13.47,0-26.94-.06-40.41,0-2,.55-2.48,2.46-2.41,3.7.14,3.7,0,3.7,3.62Z"/><path class="cls-1" d="M104.79,8.13c-.13-2.41-.07-5.19,2.68-6.85,1-.58,2.37-1.67,3.22-.4a1.84,1.84,0,0,1-1.36,2.93c-.73.15-.67,1.07-.7,1.71s.43.87,1,.8c1.28-.16,1.28.66,1.24,1.54a8.16,8.16,0,0,1,0,1c-.21,1.17.7,3-.5,3.4-1.46.54-3.26.16-4.92.12-.72,0-.61-.65-.62-1.12C104.78,10.33,104.79,9.42,104.79,8.13Z"/><path class="cls-1" d="M462.5,3.5c.82,2.82-.72,3-3,3.08-2.68.15-2.95-.86-3.12-3.2-.22-3,1.29-2.81,3.35-2.9C462.07.38,463.25,1,462.5,3.5Z"/><path class="cls-1" d="M226.59,24.13c0-4.48-2-7-6-8.16a18.75,18.75,0,0,0-9.86-.24c-5.37,1.31-7.44,4.06-7.45,9.6V42.8c0,6.07,0,12.14,0,18.22,0,6.25,3.5,9.91,9.75,10.3,1.08.07,2.17.06,3.25,0,6.45-.19,10.22-3.61,10.31-10C226.75,48.93,226.7,36.53,226.59,24.13ZM218.4,65.37a62.45,62.45,0,0,0-7.24,0c-1.64.1-1.88-.53-1.88-2q.08-20.22,0-40.45c0-1.5.35-2.07,1.94-2a51,51,0,0,0,7,0c2-.17,2.28.72,2.26,2.44-.09,6.66,0,13.32,0,20s-.06,13.32,0,20C220.5,65,220,65.46,218.4,65.37Z"/><path class="cls-1" d="M302.64,55.16c-1.66,0-1.94.65-1.87,2.07.1,2.16-.06,4.33.06,6.49.07,1.37-.45,1.68-1.7,1.64-2.58-.08-5.17-.09-7.75,0-1.31,0-1.7-.34-1.68-1.66.08-4.91.1-9.82,0-14.73,0-1.62.39-2.14,2.06-2.1,4.5.12,9,0,13.49.06,1.08,0,1.65-.12,1.63-1.44-.08-7.32,0-14.65-.1-22a7.33,7.33,0,0,0-4.42-6.73,16,16,0,0,0-11.66-.91c-4.8,1.28-7,4.28-7.05,9.25,0,6,0,12,0,18h0c0,6.24-.08,12.49,0,18.73a8.75,8.75,0,0,0,6.06,8.57,15.74,15.74,0,0,0,10.74.23c4.12-1.31,6.16-4.21,6.32-8.58,0-.91,0-1.83,0-2.75C306.85,55.06,306.85,55.15,302.64,55.16Zm-12.93-32.7c0-1,.25-1.52,1.39-1.49,2.75.06,5.5.08,8.24,0,1.32,0,1.49.6,1.47,1.67,0,2.74,0,5.49,0,8.24s-.07,5.33,0,8c.06,1.47-.29,2.09-1.91,2-2.57-.14-5.16-.08-7.74,0-1.06,0-1.48-.29-1.47-1.41C289.75,33.77,289.74,28.11,289.71,22.46Z"/><path class="cls-1" d="M48.25,24.31c0-4.45-2.12-7.25-6.35-8.41a19.15,19.15,0,0,0-10.35,0c-4.54,1.28-6.63,4-6.65,8.73q-.07,18.23,0,36.45c0,6,3,9.31,8.83,10.15a24,24,0,0,0,4.24.1c6.58-.2,10.26-4,10.29-10.58,0-5.91,0-11.82,0-17.72C48.26,36.79,48.29,30.55,48.25,24.31Zm-6,19c0,6.65-.05,13.3,0,19.94,0,1.62-.4,2.17-2.06,2.07-2.49-.14-5-.09-7.48,0-1.25,0-1.74-.26-1.74-1.64Q31,43.28,31,22.83c0-1.63.64-1.94,2.07-1.88a67.71,67.71,0,0,0,7,0c1.75-.11,2.27.45,2.24,2.21C42.15,29.89,42.21,36.62,42.21,43.35Z"/></svg>