<svg id="Layer_1" data-name="Layer 1" xmlns="http://www.w3.org/2000/svg" viewBox="0 0 506.8 71.57"><defs><style>.cls-1{fill:#8c5968;}.cls-2{fill:#915764;}.cls-3{fill:#935a64;}.cls-4{fill:#8e5965;}.cls-5{fill:#915967;}.cls-6{fill:#8e5964;}.cls-7{fill:#277668;}.cls-8{fill:#905966;}.cls-9{fill:#915c68;}.cls-10{fill:#8e5967;}.cls-11{fill:#2b7969;}.cls-12{fill:#935e6c;}.cls-13{fill:#7e5863;}</style></defs><path class="cls-1" d="M235.43,43c0-8.24.06-16.48-.05-24.72,0-1.95.46-2.76,2.45-2.43a4.72,4.72,0,0,0,1.5,0c1.84-.31,2.36.36,2.35,2.27-.09,14.73,0,29.46-.11,44.19,0,2.43.59,3.25,3,2.95a23.78,23.78,0,0,1,5,0c1.75.15,2.26-.42,2.23-2.19-.1-7.91,0-15.81,0-23.72,0-7.16.05-14.32,0-21.47,0-1.65.44-2.07,2.06-2,4.26.06,4.26,0,4.26,4.34,0,14.23,0,28.46,0,42.7,0,1.78.32,2.62,2.3,2.4,2.7-.31,6.23,1.15,7.91-.57s.43-5.07.43-7.71c0-12.9.06-25.8,0-38.7,0-1.92.42-2.75,2.42-2.43a9.32,9.32,0,0,0,2.24,0c1.1-.1,1.41.36,1.41,1.44,0,15.31,0,30.63-.11,45.94-.05,5.12-2.15,7.06-7.29,7.12-10,.12-20,0-30,.12-1.59,0-1.93-.53-1.92-2C235.46,60,235.43,51.5,235.43,43Z"/><path class="cls-1" d="M57.15,43.12c0-8.41,0-16.81,0-25.22,0-1.6.37-2.08,2-2.07,9.33.09,18.66,0,28,.05,5.36,0,8.69,3.4,8.7,8.74q0,21.84,0,43.69c0,.7.42,1.73-.31,2.06a2.94,2.94,0,0,1-2.59-.56,5.94,5.94,0,0,1-2.6-4.35,33.79,33.79,0,0,1-.39-5.22c0-12.23-.06-24.47,0-36.7,0-1.89-.48-2.46-2.34-2.3a32.37,32.37,0,0,1-5.74,0c-1.8-.16-2.17.48-2.17,2.2.07,14.9,0,29.8,0,44.69,0,2.59-.71,3-3,1.73a5.88,5.88,0,0,1-2.82-4.21,22.55,22.55,0,0,1-.56-5.19c0-12.23,0-24.47.05-36.7,0-1.8-.22-2.77-2.35-2.5-2.53.31-5.94-1.06-7.39.56-1.26,1.41-.41,4.74-.41,7.22,0,13.07-.09,26.13.06,39.2,0,2.69-1.35,2.46-3.06,2.41s-3.21.54-3.14-2.3C57.28,59.94,57.15,51.53,57.15,43.12Z"/><path class="cls-1" d="M430.31,36.31c0,9,.06,18-.05,27,0,1.92.52,2.43,2.37,2.3a46,46,0,0,1,6.74,0c1.76.12,2.22-.45,2.2-2.2-.09-9.73,0-19.47-.09-29.2,0-2.09.57-2.8,2.64-2.58a23.46,23.46,0,0,0,4.74,0c1.63-.15,2.05.52,1.89,2a15.92,15.92,0,0,0,0,2.49c.05,1-.1,1.7-1.31,1.49-1.72-.29-1.83.69-1.82,2,.05,7.16,0,14.31,0,21.47,0,6.63-3.41,10.17-10,10.46-1.08,0-2.17,0-3.25,0-6.52-.29-10.11-4-10.11-10.47q0-25.08,0-50.17c0-6.76,3.83-10.66,10.62-10.87a29,29,0,0,1,3.49.06c5.74.48,9.1,4,9.25,9.75.09,3.24,0,6.49,0,9.73,0,1.38-.35,1.87-1.8,1.9-4.32.1-4.32.16-4.32-4.11,0-2.91-.11-5.83,0-8.73.09-1.81-.57-2.29-2.27-2.19a41.93,41.93,0,0,1-6.24,0c-2.13-.19-2.85.37-2.81,2.68C430.4,18.17,430.31,27.24,430.31,36.31Z"/><path class="cls-1" d="M142.88,56.55c0,1.58,0,3.16,0,4.74-.16,5.69-3.44,9.33-9.13,10a20.8,20.8,0,0,1-5.23-.05c-6-.89-9-4.4-9.13-10.53,0-.75,0-1.5,0-2.25,0-3.65-.42-3.23,3.15-3.22s3-.49,3.07,3.57c.05,2.13-.93,5,.44,6.18,1.18,1.05,4,.35,6,.36,4.72,0,4.31,0,4.83-4.76.7-6.36-1.07-11.1-6.48-14.78-3.27-2.23-5.92-5.35-9-7.93a5.16,5.16,0,0,1-2.11-4.69c.18-2.65,0-5.32.06-8,.12-4.93,2.42-8,7.14-9.27a16.56,16.56,0,0,1,11.23.55,8,8,0,0,1,5.06,7.38c.08,1.66-.1,3.34.1,5,.26,2.14-.56,2.65-2.6,2.55-3.52-.17-3.47-.05-3.55-3.58-.05-2.21,1-5.15-.46-6.43-1.24-1.09-4.11-.36-6.26-.38-4.46,0-4.06,0-4.55,4.4-.67,5.94,1.1,10.27,6.09,13.7,3.33,2.29,6,5.46,9.18,8.07a5.11,5.11,0,0,1,2.16,4.9,37.34,37.34,0,0,0,0,4.49Z"/><path class="cls-1" d="M167.26,42.6q0-16.6,0-33.21a27.78,27.78,0,0,1,.2-4c.45-3,1.8-4.52,4.83-4.82s6.15-.17,9.23-.24c.82,0,1.11.32,1.22,1.16.61,4.35.27,4.78-4.14,4.78-5.29,0-5.29,0-5.29,5.33,0,4.26,0,4.26,4.29,4.26a13,13,0,0,0,2.25,0c2.48-.45,3,.6,3,2.95s-.77,2.64-2.74,2.52c-2.14-.13-5-.74-6.27.36-1.45,1.28-.46,5.11-.46,7.33.06,13.14.06,9.1,0,27.72,0,.89.69,13.5-.51,13.91-1,.36-3-.88-3.89-1.58s-1.68-1.08-1.7-3.69c-.06-7.07,0-1.47,0-8.55Q167.27,49.72,167.26,42.6Z"/><path class="cls-1" d="M472.14,42.79c0-11.49,0-23,0-34.46,0-6.07,1.61-7.66,7.7-7.77,2,0,4,0,6,0,1.3-.06,1.87.4,1.71,1.71a8.34,8.34,0,0,0,0,1c0,3.25,0,3.21-3.16,3.26-2,0-4.52-.84-5.79.35s-.28,3.78-.42,5.75c-.05.75.05,1.5,0,2.25-.09,1,.38,1.27,1.31,1.25,2.08-.05,4.17.06,6.25,0,1.36-.06,1.91.26,1.87,1.76-.12,4.53.26,3.63-3.5,3.67-5.91.05-5.91,0-5.91,5.91,0,18.89,0,15.44,0,34.33,0,.78.05,8.72-.78,9.12a4.07,4.07,0,0,1-3.48,0c-2.46-1.75-1.83-5.59-1.84-8.29C472,50.63,472.14,54.69,472.14,42.79Z"/><path class="cls-1" d="M8.74,38.62c0-9.9-.08-19.8.06-29.7,0-2.29-.66-3-2.79-2.66a19.27,19.27,0,0,1-2.74,0C.06,6.28.19,6.27,0,3.07-.1.94.41.21,2.72.28,8.88.46,15,.42,21.2.3c1.84,0,2.64.4,2.35,2.32a10.48,10.48,0,0,0,0,2.24c.06,1.08-.42,1.47-1.48,1.43-1.58-.06-3.18.14-4.74,0-2.18-.26-2.54.64-2.53,2.64.08,17.39.05,34.77.05,52.16,0,2.58-.07,5.16,0,7.74.05,1.37-.33,1.86-1.79,1.89-4.32.08-4.31.15-4.31-4.1Q8.73,52.61,8.74,38.62Z"/><path class="cls-1" d="M315.18,40.61c0-7.57.05-15.14,0-22.71,0-1.63.41-2.1,2.05-2.06,4.16.12,8.33,0,12.49.06,5.35.11,7.51,2.35,7.57,7.71,0,2.16,0,4.33,0,6.49,0,1.1-.39,1.36-1.44,1.43-4.71.31-4.71.34-4.71-4.38,0-5.86,0-5.86-6-5.86-3.9,0-3.9,0-3.9,3.92V68.39c0,2.56-.57,2.9-2.84,1.58-2.65-1.53-3.15-4.18-3.17-6.9-.07-7.49,0-15,0-22.46Z"/><path class="cls-1" d="M493.14,36.62c0-8.65.07-17.31-.05-26,0-2,.63-2.86,2.51-2.38,1.22.31,3.24-1.3,3.59,1.24.29,2.11-.91,5,.49,6.18,1.19,1.05,4,.34,6,.36.74,0,1.05.27,1,1a14.78,14.78,0,0,0,0,2.49c.19,1.55-.41,1.95-1.94,1.95-5.57,0-5.57.08-5.57,5.73,0,12,0,24,0,35.94,0,1.82.38,2.63,2.31,2.34.9-.14,1.85.1,2.74,0,2.12-.34,2.55.51,2.58,2.55,0,2.28-.59,3.18-2.89,2.81a15.34,15.34,0,0,0-2.25,0c-5.61-.12-8.46-2.88-8.51-8.49C493.09,53.76,493.14,45.19,493.14,36.62Z"/><path class="cls-1" d="M194.36,35.6V68.54c0,2.31-.46,2.57-2.58,1.53A5.7,5.7,0,0,1,188.83,66a19.51,19.51,0,0,1-.51-4.44c0-19.63,0-39.26-.07-58.89,0-1.9.5-2.39,2.36-2.33,3.74.13,3.75,0,3.75,3.85V35.6Z"/><path class="cls-1" d="M462.61,43.35c0,8.48-.08,17,.05,25.45,0,2.27-.81,2.35-2.44,1.64-2.44-1.06-3.24-3.25-3.52-5.61a49.59,49.59,0,0,1-.19-6c0-13.47,0-26.94-.06-40.41,0-2,.55-2.48,2.46-2.41,3.7.14,3.7,0,3.7,3.62Z"/><path class="cls-1" d="M104.79,8.13c-.13-2.41-.07-5.19,2.68-6.85,1-.58,2.37-1.67,3.22-.4a1.84,1.84,0,0,1-1.36,2.93c-.73.15-.67,1.07-.7,1.71s.43.87,1,.8c1.28-.16,1.28.66,1.24,1.54a8.16,8.16,0,0,1,0,1c-.21,1.17.7,3-.5,3.4-1.46.54-3.26.16-4.92.12-.72,0-.61-.65-.62-1.12C104.78,10.33,104.79,9.42,104.79,8.13Z"/><path class="cls-1" d="M462.5,3.5c.82,2.82-.72,3-3,3.08-2.68.15-2.95-.86-3.12-3.2-.22-3,1.29-2.81,3.35-2.9C462.07.38,463.25,1,462.5,3.5Z"/><path class="cls-1" d="M226.59,24.13c0-4.48-2-7-6-8.16a18.75,18.75,0,0,0-9.86-.24c-5.37,1.31-7.44,4.06-7.45,9.6V42.8c0,6.07,0,12.14,0,18.22,0,6.25,3.5,9.91,9.75,10.3,1.08.07,2.17.06,3.25,0,6.45-.19,10.22-3.61,10.31-10C226.75,48.93,226.7,36.53,226.59,24.13ZM218.4,65.37a62.45,62.45,0,0,0-7.24,0c-1.64.1-1.88-.53-1.88-2q.08-20.22,0-40.45c0-1.5.35-2.07,1.94-2a51,51,0,0,0,7,0c2-.17,2.28.72,2.26,2.44-.09,6.66,0,13.32,0,20s-.06,13.32,0,20C220.5,65,220,65.46,218.4,65.37Z"/><path class="cls-1" d="M302.64,55.16c-1.66,0-1.94.65-1.87,2.07.1,2.16-.06,4.33.06,6.49.07,1.37-.45,1.68-1.7,1.64-2.58-.08-5.17-.09-7.75,0-1.31,0-1.7-.34-1.68-1.66.08-4.91.1-9.82,0-14.73,0-1.62.39-2.14,2.06-2.1,4.5.12,9,0,13.49.06,1.08,0,1.65-.12,1.63-1.44-.08-7.32,0-14.65-.1-22a7.33,7.33,0,0,0-4.42-6.73,16,16,0,0,0-11.66-.91c-4.8,1.28-7,4.28-7.05,9.25,0,6,0,12,0,18h0c0,6.24-.08,12.49,0,18.73a8.75,8.75,0,0,0,6.06,8.57,15.74,15.74,0,0,0,10.74.23c4.12-1.31,6.16-4.21,6.32-8.58,0-.91,0-1.83,0-2.75C306.85,55.06,306.85,55.15,302.64,55.16Zm-12.93-32.7c0-1,.25-1.52,1.39-1.49,2.75.06,5.5.08,8.24,0,1.32,0,1.49.6,1.47,1.67,0,2.74,0,5.49,0,8.24s-.07,5.33,0,8c.06,1.47-.29,2.09-1.91,2-2.57-.14-5.16-.08-7.74,0-1.06,0-1.48-.29-1.47-1.41C289.75,33.77,289.74,28.11,289.71,22.46Z"/><path class="cls-1" d="M48.25,24.31c0-4.45-2.12-7.25-6.35-8.41a19.15,19.15,0,0,0-10.35,0c-4.54,1.28-6.63,4-6.65,8.73q-.07,18.23,0,36.45c0,6,3,9.31,8.83,10.15a24,24,0,0,0,4.24.1c6.58-.2,10.26-4,10.29-10.58,0-5.91,0-11.82,0-17.72C48.26,36.79,48.29,30.55,48.25,24.31Zm-6,19c0,6.65-.05,13.3,0,19.94,0,1.62-.4,2.17-2.06,2.07-2.49-.14-5-.09-7.48,0-1.25,0-1.74-.26-1.74-1.64Q31,43.28,31,22.83c0-1.63.64-1.94,2.07-1.88a67.71,67.71,0,0,0,7,0c1.75-.11,2.27.45,2.24,2.21C42.15,29.89,42.21,36.62,42.21,43.35Z"/><path class="cls-2" d="M368.71.08a11.36,11.36,0,0,0,6.47.57A25.92,25.92,0,0,1,378.9.27c2.89-.05,4.24,2.3,2.82,4.82s-3.54,4.45-5.4,6.74c-.59-.92-1-1.81-1.55-2.63-2.3-3.45-5.65-5.21-9.48-6.31-.4-.11-1-.06-1.07-.55s.4-.78.74-1.09c.71-.63,1.68-.69,2.46-1.17Z"/><path class="cls-3" d="M393.26,38.62A27,27,0,0,1,394.35,36a12.24,12.24,0,0,0,1.2-8.2c-.09-.5-.09-.74.53-.84,2-.33,3.65-1.56,5.42-2.46,2.4-1.22,3.2-.84,3.87,1.76a12.92,12.92,0,0,1-1.2,8.93,16.68,16.68,0,0,1-4.73,6,5.22,5.22,0,0,1-1.94,1.07c-1.41.54-2.56.37-3.19-1.19,0-.09-.16-.14-.25-.2A1.65,1.65,0,0,1,393.26,38.62Z"/><path class="cls-4" d="M394.71,29.79a9.4,9.4,0,0,1-1,5.27c-.6,1.25-1.08,2.56-1.57,3.86a.77.77,0,0,1-1,.57c-.91-.12-1.84-.18-2.76-.28-.62-.06-.74-.6-1-1-2-4.05-1.73-8.06.21-12,.81-1.67,1.62-3.34,2.37-5,.31-.72.56-.82,1.19-.31A9.53,9.53,0,0,1,394.7,28C394.75,28.56,394.71,29.17,394.71,29.79Z"/><path class="cls-5" d="M384.19,10.22a10.1,10.1,0,0,1-1.64,5.56,26.27,26.27,0,0,1-4,5.54,1.06,1.06,0,0,1-1.23.32,8.34,8.34,0,0,0-2.62-.45c-.21,0-.46,0-.59-.16-1.05-1.62-2.56-3-2.44-5.2a1.7,1.7,0,0,1,.7-1.46,5.12,5.12,0,0,1,2.19-1.08,6.1,6.1,0,0,0,4-2.63c.79-1,1.61-2,2.36-3a2,2,0,0,1,2-.88c.77.13.85.85,1,1.46A8.16,8.16,0,0,1,384.19,10.22Z"/><path class="cls-6" d="M370.64,15.4c.18,0,.23.14.25.29a9.93,9.93,0,0,0,2,4.77c.41.61.29.87-.39,1a25.92,25.92,0,0,0-3.45,1.44,4.7,4.7,0,0,1-3.45-.13c-4.11-1.75-7.38-4.46-9.11-8.72a33,33,0,0,0-2-3.14c-.17-.31-.5-.6-.24-1a1,1,0,0,1,1-.35,3.69,3.69,0,0,1,2,.68,21.1,21.1,0,0,1,3,3c1.1,1.3,2.22,2.68,4.22,2.49.68.54,1.38.06,2,0A42,42,0,0,0,370.64,15.4Z"/><path class="cls-7" d="M398.5,49a4.14,4.14,0,0,1,1-.48A22,22,0,0,0,403,46.56c.65-.42.53-.9,1.07-1.46,1.32-.61,1.9-.29,1.94,1.15,0,.6.34,1.19.09,1.81-.46.94-.93,1.88-1.39,2.81a9.48,9.48,0,0,1-3.7,4.82,6.25,6.25,0,0,1-5.14,1.69,3.28,3.28,0,0,0-1.67.32c-1.8.79-4.34-1.47-4.26-3.42,0-.51.37-.76.73-1,.75-.53,1.68-.73,2.21-1.66.29-.51,1.14-.62,1.79-.69"/><path class="cls-8" d="M366.77,6.07a2.38,2.38,0,0,0-2.47,1.32,2.77,2.77,0,0,1-1.58,1.19,2,2,0,0,0-1.54,2.05c-.21.6.3.89.63,1.1a4.7,4.7,0,0,0,3.07,1c.92-.1,1.83.13,2.75.08a5,5,0,0,1,2.22.62,1.08,1.08,0,0,1,.61,1.23c-.12.64-.64.42-1,.45s-.78,0-1.17,0c-1.26.24-2.54-.14-3.81.07a1.56,1.56,0,0,1-1.83-.47c-.91-.91-1.86-1.79-2.73-2.74a19.78,19.78,0,0,0-3.4-2.93c-1.92-1.33-1.78-3.65.22-4.89,1.64-1,3.49-1,5.3-1a14.59,14.59,0,0,1,9.58,3.39c.13.11.3.2.29.41.15.68,0,.88-.76.7A31.59,31.59,0,0,1,367.19,6a5.06,5.06,0,0,0-1.11-.34C366.29,5.84,366.72,5.61,366.77,6.07Z"/><path class="cls-7" d="M399.16,48.09c-3,1.61-1.78,1-8,3.57,1.75-.86-3.18,1.64-.2.59.79-.34,4.82-2,5.59-2.4.23-.11,2.06-1,1.24-.3A3.46,3.46,0,0,1,395,51.36a5.93,5.93,0,0,0-1.62.5c-.1,0-.29.06-.29.11-.17,1.45-1.71,1.13-2.43,1.88-.29.3-.4.47-.28.89a3.49,3.49,0,0,0,3.55,2.78c.1,0,.25,0,.31-.07.67-.8,1.53-.36,2.29-.32a7.76,7.76,0,0,0,2.93-.73c1.74-.58,2.49-2.21,3.88-3.13a1,1,0,0,0,.4-1,1.1,1.1,0,0,1,.82-1.22,1,1,0,0,1,0,1.09c-2,2.45-3.8,5-7.1,5.88a8.5,8.5,0,0,1-8.61-2.4c-1.07-1-1.08-1.07-2.49-.12-.78.11-1.1-.24-1-1q1.79-4.35,3.58-8.69a.94.94,0,0,0-.3-1.29,1.1,1.1,0,0,1-.25-1.77c.72-.68.58-1.24.15-2s-.43-1,.6-1.11a5.85,5.85,0,0,1,3.48,1.07c1.08,1,1.17,1.49.44,2.29l-.22,0c-.4-.64-.34-1.5-1.14-2-1.19-.72-1.84-.54-2.24.79a3.49,3.49,0,0,1-.24.71c-.22.4-.58.81-.05,1.23a1.45,1.45,0,0,0,1.78.25c.47-.28.84-.85,1.51-.54-.23.9-.55,1.69-1.68,1.75-.41,0-.48.46-.62.79l-2.52,5.63a4,4,0,0,0-.57,1.82,5.82,5.82,0,0,1,1-1.9l.24-.4c.74.81,1.49.23,2.25,0a24.22,24.22,0,0,0,6.31-2.73,20,20,0,0,1,1.91-.95c.42-.18.87-.38,1.24.12"/><path class="cls-9" d="M402.89,22.91a39.6,39.6,0,0,0-3.71,1.69c-.77.45-1.58.82-2.38,1.2s-1.34.24-1.63-.69a9.59,9.59,0,0,0-2.31-3.81c-.43-.45-.5-.72,0-1.21,1.52-1.61,3-3.27,4.46-4.9.21-.23.41-.55.8-.42s.26.54.26.83A7.23,7.23,0,0,0,402.89,22.91Z"/><path class="cls-10" d="M362.91,11.45c-.6-.08-1.16-.26-1.19-1a1.28,1.28,0,0,1,.94-1.3c1.09-.38,2.09-.72,2.48-2,.17-.6,1-.76,1.67-.4s1,.64.7,1.42a3.16,3.16,0,0,0-.05,1.56c.13-.05.23-.05.24-.09.87-2.36.75-1.86,3-1.46a6,6,0,0,1,4.1,2.27c.87,1.21.7,1.93-.69,2.35A4.79,4.79,0,0,0,372,13.87c-.37.37-.66.51-1,0a4.42,4.42,0,0,0-1.93-1.45.75.75,0,0,0-.64-.33C366.6,11.91,364.76,11.62,362.91,11.45Z"/><path class="cls-7" d="M376.89,44.41a6.5,6.5,0,0,1,.43-2.18c.47.32.38.81.48,1.26-.15-.62-.17-1.25-.27-1.88-.46-2-.91-3.92-1.39-5.88-.63-2.55-1.29-5.09-1.94-7.62a2.14,2.14,0,0,1,1.66-.24,1,1,0,0,0-.05.74c1.14,5.23,2.23,10.47,3.65,15.62.44,1.61.76,3.26,1.13,4.9-.42.59-.72.48-.91-.18a5.31,5.31,0,0,0-1-2.4,1.78,1.78,0,0,0-.95-.62c-.5-.39-.91-.25-1.44.06-3.45,2-7,2.64-10.77.77a2.35,2.35,0,0,1-.25-.19,1.26,1.26,0,0,1,1.46.22,1.46,1.46,0,0,0,1.49.28,7.73,7.73,0,0,1,2.75-.29c1.1.08,2-.71,3-.82a.85.85,0,0,0,.4-1.51,1.37,1.37,0,0,1-.35-1.08,6.18,6.18,0,0,0,1.84,1C376.29,44.48,376.52,44.73,376.89,44.41Z"/><path class="cls-7" d="M400,47.75c-.79.32-.79,0-1.17.12a9.68,9.68,0,0,1-1.92.85,1.16,1.16,0,0,1-1.26-.79,1.26,1.26,0,0,0-1.68-.71,7.28,7.28,0,0,0-3.65,2.11c-.34.38-.66,1-1.39.68a8.91,8.91,0,0,1,2.61-2.47c.75-.47,1.55-.87,2.33-1.3.62-.35,1.15-.81,2-.44a1.82,1.82,0,0,0,1.43-.24c.38-.21.82-.82,1.27-.05a.23.23,0,0,0,.2,0c.67-.89,1.79-.77,2.67-1.19a.8.8,0,0,1,.41-.14c1.15.31,1-.1,1.28-.33,1.15-.85,2.56-1.21,3.67-2.12.32-.26.75.07.6.38a5.71,5.71,0,0,0-.23,1.77c-.18,1.16-1,2.19-.67,3.47.07.27-.35.66-.55,1a6.83,6.83,0,0,1-.34-2.05c.11-.95-.42-1.11-1.6-.61-.63.43-1.37.62-2,1S401.1,47.2,400,47.75Z"/><path class="cls-11" d="M375.87,27.87a2.29,2.29,0,0,1-1.66.23c-1.06-.43-1.92-1-2-2.31-.06-.73-.64-1.05-1.4-1-.35,0-.79,0-.91-.4s.28-.61.55-.83A6.93,6.93,0,0,1,377,22.29c.68.16,1.16.47.32,1.16s-1.1,1.27-.29,2.24S377.17,27.4,375.87,27.87Z"/><path class="cls-7" d="M377.73,45.93a1.88,1.88,0,0,1,1.6,1.29,7.12,7.12,0,0,1,.52,1.62c.1.61.39.46.73.29.39,1.59,1,3.11,1.3,4.72s.83,3.17,1.31,4.94c1.09-1.36,1.19-3,2.11-4.26.26.41.34,1,1,1-1.21.65-1.54,2-2.29,3a3,3,0,0,0-.34,2.81c.85,3.1,1.57,6.23,2.33,9.35a1.65,1.65,0,0,1,0,.77,14.11,14.11,0,0,1-1.73-3.61c-1.1-3.06-1.65-6.27-2.47-9.41-.9-3.45-1.77-6.92-2.58-10.39A4.49,4.49,0,0,0,377.73,45.93Z"/><path class="cls-7" d="M388.89,50c.7,0,1-.64,1.4-1.08a7.12,7.12,0,0,1,3.87-2,1.21,1.21,0,0,1,1.64.9c.13.61.72.62,1.07.94-.24.86-1.21.88-1.74,1.13a17.79,17.79,0,0,1-4.5,1.68,2.61,2.61,0,0,0-.89.34c-.77.44-1.29.32-1.48-.61A5.4,5.4,0,0,1,388.89,50Z"/><path class="cls-12" d="M403.65,20.88c0,1-.52,1.36-1.5.83-1.68-.92-2.39-2.57-3-4.24-.21-.53.29-.83.6-1.16,1.76-1.84,1.76-1.84,2.74.52A16.08,16.08,0,0,1,403.65,20.88Z"/><path class="cls-7" d="M392.41,43.57a3.7,3.7,0,0,0-1,.52,1.77,1.77,0,0,1-2.65-.1.65.65,0,0,1-.18-.86,6.43,6.43,0,0,0,.77-1.82c.22-.5.52-1.08,1.26-.89a2.58,2.58,0,0,1,2.19,1.75,4.37,4.37,0,0,1,0,1A5.34,5.34,0,0,0,392.41,43.57Z"/><path class="cls-2" d="M367.63,12.81a8.36,8.36,0,0,1-5.69-.62c-.55-.29-.76-.83-1.09-1.28-.13-.17.15-.26.33-.29a4,4,0,0,0,3.73,1.8A5.77,5.77,0,0,1,367.63,12.81Z"/><path class="cls-2" d="M366.77,6.07c-.31-.33-.76-.09-1.12-.25.11-.43.38-.31.66-.27,1.74.3,3.14,1.43,4.82,1.91.21.06.3,0,.33-.1.09-.32.09-.82.35-.61s1.16,1.1,1,1.44A16.35,16.35,0,0,1,366.77,6.07Z"/><path class="cls-13" d="M393.26,38.62c-.28,1.7,1.47,2.21,2,3.43.15.34.49.37.92.29s.85-.5,1.31-.11a7.28,7.28,0,0,1-.85.4c-.8.29-1.49.34-1.94-.63a3.07,3.07,0,0,0-1.1-1.29C392.58,40.1,392.69,39.43,393.26,38.62Z"/><path class="cls-8" d="M370.64,15.4a.4.4,0,0,1-.42.39,42.23,42.23,0,0,0-5.27.43c-.22,0-.76.25-.54-.41l2.56-.26c1-.11,1-.11,1.56-.15Z"/><path class="cls-7" d="M393,43.07c.61-.91-.13-1.55-.44-2.29a3.87,3.87,0,0,1,1.86,1.6c.13.16.35.4.19.66s-.43.14-.67.12Z"/><path class="cls-8" d="M362.91,11.45c.62-.46,1.24-.09,1.82.05,1.31.33,2.68,0,4,.41.22.07.65,0,.4.46C367.06,11.9,364.92,12.13,362.91,11.45Z"/><path class="cls-7" d="M377.34,42a17.28,17.28,0,0,0-1.16-2.75,20.47,20.47,0,0,0-4.84-4.81c-.61-.5-1.06-1.4-2.13-.82-.16.09-.53-.15-.77-.3-.51-.32-1-.69-1.5-1-.17-.12-.34-.3-.57-.18s.24.44-.06.63a2.55,2.55,0,0,1-1.1-1c-.23-.31-.7-.85-.79-.8-1.12.64-1.47-1.64-2.62-.66-.57-1.21-1.89-1.05-2.83-1.58a7.1,7.1,0,0,1-.92-.74c-.35-.28-.59-.72-1.12-.81-.12.58-.29,1.13-.35,1.69-.27,2.3-.55,4.59.87,6.68.33.49.81,1.22.66,1.64-.32.91.15,1.47.47,2.14h0a11.25,11.25,0,0,0,1.6,2.49c1.33,2,2.63,4,5.12,4.73a6.2,6.2,0,0,1,1.49.49,2.3,2.3,0,0,0,1.44.29,28.31,28.31,0,0,0,5.54-1c1.07-.39,1.44-1.13.89-2.14a5.07,5.07,0,0,1-.34-.75l-.21-.12c-3.45-2.55-7.24-4.63-10.43-7.54a.26.26,0,0,1,.13-.08.23.23,0,0,1,.2,0h0c4.28,2.91,8.49,5.91,12.91,8.6a.31.31,0,0,1,0,.09h0a3.58,3.58,0,0,0,.93-1.4"/></svg>