<svg id="Layer_1" data-name="Layer 1" xmlns="http://www.w3.org/2000/svg" viewBox="0 0 118.38 158.63"><defs><style>.cls-1{fill:#915764;}.cls-2{fill:#935a64;}.cls-3{fill:#8e5965;}.cls-4{fill:#915967;}.cls-5{fill:#8e5964;}.cls-6{fill:#277668;}.cls-7{fill:#905966;}.cls-8{fill:#915c68;}.cls-9{fill:#8e5967;}.cls-10{fill:#2b7969;}.cls-11{fill:#935e6c;}.cls-12{fill:#7e5863;}</style></defs><path class="cls-1" d="M32.42,0A25.22,25.22,0,0,0,46.8,1.26,56,56,0,0,1,55.06.42c6.43-.12,9.42,5.11,6.27,10.71s-7.86,9.89-12,15c-1.3-2.05-2.24-4-3.45-5.85-5.1-7.68-12.56-11.59-21.06-14C23.94,6,22.68,6.08,22.44,5s.88-1.73,1.64-2.42c1.57-1.4,3.75-1.53,5.47-2.6Z"/><path class="cls-2" d="M87,85.63a60.17,60.17,0,0,1,2.42-5.92,27.19,27.19,0,0,0,2.67-18.23c-.19-1.1-.19-1.64,1.18-1.87,4.48-.74,8.11-3.46,12-5.46,5.34-2.72,7.11-1.86,8.6,3.92,1.81,7,.3,13.53-2.66,19.85a36.91,36.91,0,0,1-10.52,13.35,11.94,11.94,0,0,1-4.31,2.38c-3.14,1.21-5.68.83-7.09-2.65-.08-.19-.34-.31-.54-.44C86.87,89.39,86.13,87.8,87,85.63Z"/><path class="cls-3" d="M90.21,66a20.84,20.84,0,0,1-2.34,11.7c-1.33,2.79-2.41,5.7-3.5,8.59a1.66,1.66,0,0,1-2.12,1.25c-2-.27-4.09-.4-6.13-.61-1.37-.14-1.63-1.32-2.12-2.3-4.52-9-3.84-17.92.47-26.77,1.8-3.71,3.61-7.42,5.26-11.19.69-1.59,1.23-1.81,2.64-.69,5.16,4.09,7.35,9.59,7.82,15.94C90.29,63.28,90.21,64.63,90.21,66Z"/><path class="cls-4" d="M66.82,22.52a22.31,22.31,0,0,1-3.65,12.36C60.55,39.25,58,43.61,54.31,47.2a2.34,2.34,0,0,1-2.72.72,18.31,18.31,0,0,0-5.83-1c-.46,0-1,.09-1.32-.36C42.12,43,38.75,39.87,39,35a3.76,3.76,0,0,1,1.55-3.23,11.41,11.41,0,0,1,4.86-2.41c3.91-.59,6.59-2.87,8.88-5.84,1.74-2.26,3.57-4.47,5.25-6.77a4.38,4.38,0,0,1,4.53-1.95c1.71.29,1.89,1.9,2.33,3.24A16.48,16.48,0,0,1,66.82,22.52Z"/><path class="cls-5" d="M36.71,34c.39,0,.52.32.55.65.31,4,2.26,7.38,4.44,10.6.92,1.37.64,1.94-.87,2.26-2.74.58-5,2.25-7.66,3.19a10.43,10.43,0,0,1-7.67-.29C16.37,46.55,9.1,40.53,5.26,31.05c-1.07-2.64-3.19-4.54-4.52-7-.37-.68-1.1-1.34-.54-2.14a2.29,2.29,0,0,1,2.16-.78,8.11,8.11,0,0,1,4.43,1.51,47.89,47.89,0,0,1,6.69,6.74c2.45,2.88,4.93,6,9.38,5.54,1.52,1.2,3.07.13,4.52-.09C30.49,34.4,33.65,34.81,36.71,34Z"/><path class="cls-6" d="M98.63,108.6a9.33,9.33,0,0,1,2.28-1.07,48.89,48.89,0,0,0,7.69-4.25c1.44-.94,1.17-2,2.38-3.25,2.94-1.35,4.22-.65,4.31,2.55,0,1.34.77,2.65.2,4l-3.09,6.25c-1.24,4.7-4.71,7.9-8.22,10.72-3.15,2.53-7,4.64-11.41,3.75a7.3,7.3,0,0,0-3.72.72c-4,1.75-9.65-3.28-9.48-7.6.05-1.14.84-1.69,1.63-2.26,1.66-1.17,3.73-1.61,4.91-3.68.64-1.14,2.53-1.38,4-1.53"/><path class="cls-7" d="M28.1,13.31c-2.62-.52-4.18,1.08-5.49,2.92a6.25,6.25,0,0,1-3.51,2.65,4.36,4.36,0,0,0-3.42,4.56c-.47,1.34.66,2,1.4,2.45,2,1.33,4.21,2.5,6.82,2.21,2.05-.22,4.07.29,6.11.19a11,11,0,0,1,4.93,1.38A2.41,2.41,0,0,1,36.3,32.4c-.27,1.43-1.43.94-2.28,1s-1.73,0-2.6,0c-2.81.52-5.64-.32-8.45.16-1.63.69-2.93.09-4.08-1.06-2-2-4.14-4-6.05-6.09a44,44,0,0,0-7.57-6.52c-4.26-3-3.95-8.1.49-10.85,3.66-2.27,7.76-2.2,11.78-2.18a32.55,32.55,0,0,1,21.3,7.53c.3.25.67.44.64.91.34,1.51,0,1.95-1.68,1.53-3.12-.78-5.82-2.48-8.75-3.65a11.08,11.08,0,0,0-2.47-.73C27.05,12.8,28,12.28,28.1,13.31Z"/><path class="cls-6" d="M100.09,106.69c-6.75,3.58-4,2.13-17.87,7.93,3.88-1.91-7.07,3.65-.44,1.31,1.75-.75,10.7-4.49,12.42-5.34.5-.25,4.57-2.14,2.75-.67a7.73,7.73,0,0,1-6.11,4,12.79,12.79,0,0,0-3.6,1.12c-.23.07-.64.13-.65.24-.37,3.21-3.79,2.5-5.39,4.16-.65.68-.89,1-.63,2,1.07,3.92,3.87,6.17,7.89,6.18.23,0,.56,0,.68-.14,1.49-1.77,3.39-.81,5.1-.71,2.39.15,4.35-.9,6.51-1.62,3.87-1.28,5.54-4.91,8.62-7a2.3,2.3,0,0,0,.89-2.13,2.42,2.42,0,0,1,1.81-2.7,2.18,2.18,0,0,1-.08,2.42c-4.35,5.43-8.43,11.1-15.76,13.06-7.52,2-13.74-.12-19.14-5.34-2.39-2.31-2.4-2.39-5.54-.27-1.74.26-2.45-.52-2.23-2.24q4-9.65,8-19.31a2.09,2.09,0,0,0-.68-2.88c-1.33-1-1.9-2.65-.56-3.93,1.6-1.51,1.28-2.76.32-4.34-1.17-1.94-.94-2.31,1.34-2.47,2.88-.2,5.37.93,7.74,2.39,2.41,2.31,2.6,3.3,1,5.08l-.49.1c-.89-1.43-.77-3.34-2.53-4.4-2.64-1.6-4.1-1.2-5,1.75a7.66,7.66,0,0,1-.54,1.57c-.5.89-1.29,1.81-.12,2.73s2.47,1.44,4,.56c1-.62,1.86-1.88,3.36-1.21-.5,2-1.21,3.75-3.73,3.89-.91,0-1.07,1-1.39,1.75q-2.79,6.25-5.6,12.51c-.5,1.29-1.28,2.14-1.28,4.06.41-2,1.58-3,2.24-4.23l.53-.89c1.63,1.8,3.3.52,5,.09a54.5,54.5,0,0,0,14-6.06c1.38-.77,2.79-1.48,4.23-2.11.94-.4,1.94-.83,2.77.27"/><path class="cls-8" d="M108.39,50.72c-2.86,1.29-5.68,2.27-8.25,3.76-1.71,1-3.52,1.82-5.3,2.67s-3,.53-3.62-1.53a21.49,21.49,0,0,0-5.14-8.47c-1-1-1.11-1.59-.08-2.69,3.38-3.56,6.62-7.26,9.93-10.89.46-.51.92-1.23,1.77-.94s.59,1.21.57,1.85C98.05,42,101.26,47.37,108.39,50.72Z"/><path class="cls-9" d="M19.54,25.27c-1.34-.17-2.58-.57-2.66-2.16A2.87,2.87,0,0,1,19,20.21c2.42-.85,4.64-1.59,5.5-4.56.39-1.33,2.17-1.69,3.71-.9,1.32.68,2.25,1.42,1.56,3.16a7,7,0,0,0-.12,3.47c.29-.1.51-.12.54-.2,1.94-5.24,1.66-4.14,6.58-3.24,3.52.65,6.83,1.9,9.1,5.06,1.93,2.68,1.56,4.29-1.53,5.22a10.6,10.6,0,0,0-4.55,2.44c-.82.81-1.48,1.13-2.19-.11-1-1.66-2.72-2.33-4.28-3.22a1.67,1.67,0,0,0-1.42-.73C27.74,26.27,23.65,25.64,19.54,25.27Z"/><path class="cls-6" d="M50.6,98.51c.3-1.62.11-3.34,1-4.85,1,.71.85,1.8,1.06,2.79-.32-1.36-.38-2.77-.6-4.17-1-4.35-2-8.72-3.09-13.06-1.39-5.66-2.86-11.3-4.3-16.95a4.67,4.67,0,0,1,3.68-.52,2.21,2.21,0,0,0-.11,1.62c2.54,11.61,4.95,23.26,8.1,34.74,1,3.59,1.68,7.25,2.51,10.88-.94,1.28-1.6,1.05-2-.39-.53-1.86-.79-3.84-2.21-5.33a4,4,0,0,0-2.12-1.38c-1.11-.87-2-.56-3.2.13-7.67,4.51-15.61,5.86-23.93,1.71a3.15,3.15,0,0,1-.55-.43c1.16-.39,2.16-.56,3.24.5a3.3,3.3,0,0,0,3.32.63,17.26,17.26,0,0,1,6.12-.65c2.43.18,4.35-1.57,6.75-1.81a1.89,1.89,0,0,0,.9-3.36,3,3,0,0,1-.77-2.4C46.53,97.59,47,98,48.43,98.39,49.28,98.65,49.79,99.23,50.6,98.51Z"/><path class="cls-6" d="M101.86,105.92c-1.75.7-1.76-.08-2.6.27-1.44.61-2.69,1.61-4.26,1.9a2.58,2.58,0,0,1-2.79-1.76c-.77-1.72-2.12-2-3.75-1.58a16.09,16.09,0,0,0-8.11,4.68c-.76.84-1.46,2.23-3.08,1.52a19.91,19.91,0,0,1,5.81-5.5c1.67-1,3.45-1.93,5.18-2.9,1.38-.77,2.56-1.81,4.45-1a4,4,0,0,0,3.18-.54c.83-.48,1.83-1.83,2.82-.11,0,.07.39.08.44,0,1.5-2,4-1.71,5.94-2.64.35-.17.67-.36.9-.3,2.54.69,2.15-.23,2.84-.74,2.55-1.88,5.69-2.68,8.16-4.71.72-.59,1.66.14,1.33.83-.63,1.31-.31,2.64-.51,3.94-.4,2.58-2.21,4.86-1.5,7.71.15.6-.78,1.47-1.21,2.21-.24-1.51-1-2.84-.76-4.55.24-2.11-.94-2.47-3.55-1.36-1.39,1-3.05,1.38-4.45,2.32C104.78,104.46,104.4,104.71,101.86,105.92Z"/><path class="cls-10" d="M48.32,61.75a5.07,5.07,0,0,1-3.68.52c-2.35-1-4.27-2.19-4.51-5.14C40,55.5,38.7,54.8,37,54.86c-.78,0-1.77,0-2-.88s.62-1.35,1.22-1.87c4.32-3.72,9.3-4,14.54-2.77,1.52.37,2.59,1,.72,2.58-1.67,1.38-2.45,2.82-.65,5C52.38,58.77,51.22,60.71,48.32,61.75Z"/><path class="cls-6" d="M52.47,101.89c1.34,0,2.83,1.08,3.56,2.86a16.53,16.53,0,0,1,1.16,3.59c.23,1.36.86,1,1.63.65.86,3.53,2.18,6.91,2.89,10.5s1.85,7,2.91,11c2.42-3,2.65-6.72,4.7-9.47.59.91.76,2.22,2.23,2.24-2.7,1.46-3.42,4.42-5.08,6.66-1.45,2-1.38,3.92-.75,6.24C67.6,143,69.2,150,70.9,156.92a3.63,3.63,0,0,1,0,1.71,31.68,31.68,0,0,1-3.85-8c-2.43-6.8-3.66-13.94-5.48-20.91q-3-11.52-5.74-23.1C55.36,104.46,53.82,103.3,52.47,101.89Z"/><path class="cls-6" d="M77.27,111c1.55-.12,2.25-1.44,3.11-2.39,2.33-2.61,5.37-3.8,8.61-4.57,1.62-.38,3.2,0,3.63,2,.3,1.35,1.61,1.38,2.38,2.1-.54,1.91-2.68,2-3.87,2.52-3.18,1.51-6.44,3.11-10,3.73a6.53,6.53,0,0,0-2,.75c-1.72,1-2.86.71-3.29-1.36A13.1,13.1,0,0,1,77.27,111Z"/><path class="cls-11" d="M110.08,46.22c0,2.25-1.15,3-3.33,1.84-3.73-2-5.31-5.72-6.76-9.42-.46-1.17.65-1.84,1.34-2.57,3.92-4.09,3.92-4.09,6.1,1.16A37,37,0,0,1,110.08,46.22Z"/><path class="cls-6" d="M85.08,96.64a8.58,8.58,0,0,0-2.28,1.15c-2.1,1.74-3.9,1.58-5.9-.22a1.45,1.45,0,0,1-.4-1.91c1-1.21,1.13-2.72,1.71-4,.49-1.11,1.15-2.4,2.79-2,2.19.56,4.2,1.43,4.86,3.88a8.88,8.88,0,0,1,.06,2.13Z"/><path class="cls-1" d="M30,28.29c-4.35.87-8.59.74-12.64-1.38-1.21-.63-1.68-1.85-2.42-2.84-.28-.37.34-.57.73-.63a8.77,8.77,0,0,0,8.29,4A12.6,12.6,0,0,1,30,28.29Z"/><path class="cls-1" d="M28.1,13.31c-.68-.74-1.68-.2-2.48-.56.24-1,.85-.7,1.47-.59,3.87.66,7,3.18,10.71,4.25.48.13.68,0,.74-.22.19-.71.21-1.83.78-1.36.88.73,2.57,2.44,2.18,3.21C36.58,17.57,32.33,15.48,28.1,13.31Z"/><path class="cls-12" d="M87,85.63c-.62,3.77,3.26,4.92,4.48,7.63.34.75,1.1.82,2,.64s1.88-1.12,2.91-.25c-.63.3-1.24.66-1.89.9-1.78.63-3.31.76-4.32-1.41a6.71,6.71,0,0,0-2.45-2.86C85.46,88.93,85.71,87.43,87,85.63Z"/><path class="cls-7" d="M36.71,34a.88.88,0,0,1-.94.86,95.77,95.77,0,0,0-11.72,1c-.48,0-1.68.55-1.19-.9l5.68-.58c2.31-.25,2.31-.25,3.46-.33Z"/><path class="cls-6" d="M86.41,95.54c1.36-2-.29-3.46-1-5.08,1.94.53,3,2.13,4.14,3.56.3.36.78.89.43,1.47s-1,.32-1.49.26C87.81,95.67,87.11,95.61,86.41,95.54Z"/><path class="cls-7" d="M19.54,25.27c1.37-1,2.76-.2,4,.12,2.91.73,6,0,8.82.91.49.15,1.44-.05.89,1C28.76,26.26,24,26.76,19.54,25.27Z"/><path class="cls-6" d="M51.6,93.21A37.4,37.4,0,0,0,49,87.1c-2.76-4.45-6.83-7.47-10.76-10.68-1.35-1.1-2.36-3.12-4.74-1.82-.35.19-1.18-.33-1.71-.66-1.14-.72-2.22-1.53-3.32-2.31-.38-.26-.76-.67-1.27-.39s.54,1-.13,1.39a5.63,5.63,0,0,1-2.45-2.18c-.52-.69-1.57-1.88-1.76-1.77-2.49,1.43-3.28-3.65-5.83-1.47-1.25-2.69-4.2-2.33-6.3-3.52a16.38,16.38,0,0,1-2-1.64c-.78-.62-1.3-1.6-2.49-1.81C6,61.53,5.59,62.75,5.44,64c-.61,5.1-1.22,10.19,1.93,14.84.74,1.09,1.79,2.71,1.46,3.64-.71,2,.34,3.27,1,4.76h0c.75,2.13,2.32,3.74,3.55,5.55,3,4.36,5.84,8.9,11.37,10.51a14.3,14.3,0,0,1,3.31,1.1,5.08,5.08,0,0,0,3.2.64c4.11-.64,8.32-.68,12.31-2.14,2.37-.87,3.21-2.5,2-4.76a11.25,11.25,0,0,1-.75-1.66l-.48-.27c-7.66-5.67-16.08-10.29-23.17-16.75a.58.58,0,0,1,.28-.18.57.57,0,0,1,.45.11h0c9.5,6.46,18.86,13.14,28.68,19.11a2.11,2.11,0,0,1,0,.21l.09,0a8.22,8.22,0,0,0,2.08-3.12"/></svg>